<?xml version="1.0" encoding="UTF-8" standalone="no"?>
<!-- Created with Inkscape (http://www.inkscape.org/) -->

<svg
   width="320.40131mm"
   height="59.084404mm"
   viewBox="0 0 320.40131 59.084404"
   version="1.1"
   id="svg5"
   xmlns="http://www.w3.org/2000/svg"
   xmlns:svg="http://www.w3.org/2000/svg">
  <defs
     id="defs2">
    <rect
       x="-253.4241"
       y="304.10892"
       width="1186.6211"
       height="591.81982"
       id="rect1" />
  </defs>
  <g
     id="layer1"
     transform="translate(69.139481,-82.108108)">
    <path
       style="font-size:12px;line-height:1.25;font-family:'Samsung Sharp Sans';-inkscape-font-specification:'Samsung Sharp Sans';white-space:pre;stroke-width:0"
       d="m -248.61183,315.14788 c 0.648,0 1.248,-0.108 1.776,-0.348 0.528,-0.24 0.972,-0.552 1.344,-0.96 0.372,-0.396 0.66,-0.864 0.864,-1.392 0.192,-0.528 0.3,-1.092 0.3,-1.692 v -0.648 h -4.548 v 1.56 h 2.796 c -0.168,0.576 -0.468,1.044 -0.9,1.38 -0.432,0.348 -0.984,0.516 -1.632,0.516 -0.432,0 -0.816,-0.072 -1.176,-0.228 -0.36,-0.144 -0.672,-0.36 -0.936,-0.624 -0.264,-0.264 -0.456,-0.564 -0.6,-0.924 -0.144,-0.348 -0.216,-0.732 -0.216,-1.14 0,-0.396 0.072,-0.768 0.216,-1.128 0.144,-0.348 0.336,-0.66 0.6,-0.924 0.264,-0.264 0.564,-0.468 0.912,-0.624 0.348,-0.156 0.732,-0.24 1.14,-0.24 0.576,0 1.068,0.132 1.488,0.384 0.42,0.264 0.768,0.636 1.044,1.14 l 1.44,-0.864 c -0.192,-0.324 -0.42,-0.624 -0.684,-0.9 -0.264,-0.276 -0.576,-0.516 -0.912,-0.72 -0.336,-0.192 -0.708,-0.348 -1.104,-0.456 -0.408,-0.108 -0.828,-0.168 -1.284,-0.168 -0.648,0 -1.248,0.12 -1.8,0.36 -0.552,0.24 -1.02,0.552 -1.416,0.96 -0.396,0.408 -0.708,0.876 -0.924,1.428 -0.228,0.552 -0.336,1.128 -0.336,1.752 0,0.612 0.108,1.188 0.324,1.728 0.216,0.552 0.516,1.032 0.924,1.44 0.396,0.408 0.876,0.732 1.44,0.972 0.552,0.24 1.176,0.36 1.86,0.36 z m 8.36401,0.024 c 0.456,0 0.888,-0.084 1.296,-0.276 0.396,-0.192 0.72,-0.444 0.984,-0.78 v 0.912 h 1.62 v -7.02 h -1.62 v 0.84 c -0.264,-0.3 -0.588,-0.54 -0.972,-0.72 -0.396,-0.168 -0.828,-0.264 -1.284,-0.264 -0.444,0 -0.876,0.084 -1.296,0.252 -0.42,0.168 -0.792,0.396 -1.116,0.708 -0.324,0.312 -0.588,0.696 -0.78,1.152 -0.192,0.456 -0.288,0.972 -0.288,1.548 0,0.576 0.096,1.092 0.3,1.548 0.192,0.456 0.456,0.828 0.792,1.14 0.324,0.312 0.696,0.552 1.104,0.72 0.408,0.168 0.828,0.24 1.26,0.24 z m 0.264,-1.488 c -0.3,0 -0.576,-0.048 -0.84,-0.168 -0.264,-0.108 -0.48,-0.264 -0.672,-0.456 -0.192,-0.192 -0.348,-0.432 -0.456,-0.696 -0.108,-0.264 -0.156,-0.552 -0.156,-0.864 0,-0.3 0.048,-0.588 0.156,-0.852 0.108,-0.264 0.264,-0.492 0.456,-0.684 0.192,-0.192 0.408,-0.336 0.672,-0.456 0.264,-0.108 0.54,-0.168 0.84,-0.168 0.3,0 0.576,0.06 0.84,0.168 0.252,0.12 0.468,0.276 0.66,0.468 0.18,0.192 0.324,0.42 0.432,0.684 0.108,0.264 0.168,0.552 0.168,0.84 0,0.312 -0.06,0.588 -0.168,0.852 -0.108,0.264 -0.252,0.504 -0.432,0.696 -0.192,0.204 -0.408,0.36 -0.66,0.468 -0.264,0.12 -0.54,0.168 -0.84,0.168 z m 4.56,-7.536 v 8.88 h 1.632 v -8.88 z m 5.79601,9.024 c 0.456,0 0.888,-0.084 1.296,-0.276 0.396,-0.192 0.72,-0.444 0.984,-0.78 v 0.912 h 1.62 v -7.02 h -1.62 v 0.84 c -0.264,-0.3 -0.588,-0.54 -0.972,-0.72 -0.396,-0.168 -0.828,-0.264 -1.284,-0.264 -0.444,0 -0.876,0.084 -1.296,0.252 -0.42,0.168 -0.792,0.396 -1.116,0.708 -0.324,0.312 -0.588,0.696 -0.78,1.152 -0.192,0.456 -0.288,0.972 -0.288,1.548 0,0.576 0.096,1.092 0.3,1.548 0.192,0.456 0.456,0.828 0.792,1.14 0.324,0.312 0.696,0.552 1.104,0.72 0.408,0.168 0.828,0.24 1.26,0.24 z m 0.264,-1.488 c -0.3,0 -0.576,-0.048 -0.84,-0.168 -0.264,-0.108 -0.48,-0.264 -0.672,-0.456 -0.192,-0.192 -0.348,-0.432 -0.456,-0.696 -0.108,-0.264 -0.156,-0.552 -0.156,-0.864 0,-0.3 0.048,-0.588 0.156,-0.852 0.108,-0.264 0.264,-0.492 0.456,-0.684 0.192,-0.192 0.408,-0.336 0.672,-0.456 0.264,-0.108 0.54,-0.168 0.84,-0.168 0.3,0 0.576,0.06 0.84,0.168 0.252,0.12 0.468,0.276 0.66,0.468 0.18,0.192 0.324,0.42 0.432,0.684 0.108,0.264 0.168,0.552 0.168,0.84 0,0.312 -0.06,0.588 -0.168,0.852 -0.108,0.264 -0.252,0.504 -0.432,0.696 -0.192,0.204 -0.408,0.36 -0.66,0.468 -0.264,0.12 -0.54,0.168 -0.84,0.168 z m 6.67199,-2.232 -2.64,3.576 h 1.98 l 1.668,-2.34 1.716,2.34 h 1.98 l -2.688,-3.552 2.52,-3.468 h -1.92 l -1.584,2.232 -1.596,-2.232 h -1.98 z m 7.62,3.228 -1.476,3.588 h 1.644 l 4.188,-10.26 h -1.704 l -1.848,4.728 -1.956,-4.728 h -1.728 z m 10.86001,0.468 c 0.48,0 0.9,-0.072 1.284,-0.228 0.372,-0.156 0.684,-0.36 0.948,-0.612 0.252,-0.252 0.444,-0.54 0.588,-0.876 0.132,-0.324 0.204,-0.66 0.204,-1.008 0,-0.42 -0.084,-0.768 -0.228,-1.056 -0.156,-0.288 -0.36,-0.528 -0.6,-0.72 -0.24,-0.192 -0.516,-0.36 -0.816,-0.48 -0.3,-0.12 -0.6,-0.24 -0.888,-0.336 l -0.684,-0.228 c -0.216,-0.072 -0.408,-0.144 -0.576,-0.24 -0.168,-0.096 -0.288,-0.204 -0.384,-0.324 -0.096,-0.12 -0.144,-0.264 -0.144,-0.444 0,-0.276 0.096,-0.516 0.312,-0.708 0.204,-0.192 0.504,-0.288 0.912,-0.288 0.672,0 1.2,0.288 1.584,0.84 l 1.344,-1.02 c -0.18,-0.18 -0.372,-0.348 -0.564,-0.504 -0.192,-0.156 -0.408,-0.288 -0.648,-0.408 -0.24,-0.108 -0.492,-0.192 -0.78,-0.264 -0.288,-0.06 -0.6,-0.096 -0.948,-0.096 -0.42,0 -0.804,0.072 -1.164,0.192 -0.36,0.132 -0.66,0.312 -0.924,0.54 -0.264,0.228 -0.456,0.492 -0.6,0.792 -0.144,0.312 -0.216,0.636 -0.216,0.984 0,0.42 0.072,0.768 0.216,1.044 0.144,0.276 0.336,0.504 0.576,0.696 0.24,0.192 0.504,0.336 0.804,0.444 0.288,0.12 0.588,0.216 0.888,0.312 0.228,0.072 0.456,0.144 0.672,0.216 0.216,0.072 0.42,0.156 0.588,0.252 0.168,0.096 0.3,0.204 0.408,0.324 0.096,0.132 0.156,0.288 0.156,0.468 0,0.312 -0.12,0.576 -0.348,0.816 -0.228,0.24 -0.552,0.36 -0.984,0.36 -0.408,0 -0.768,-0.096 -1.092,-0.3 -0.336,-0.204 -0.612,-0.504 -0.828,-0.888 l -1.488,1.176 c 0.396,0.456 0.864,0.828 1.416,1.128 0.54,0.3 1.212,0.444 2.004,0.444 z m 3.732,-1.656 v 1.536 h 5.58 v -1.56 h -3.948 c 0,-0.204 0.048,-0.396 0.156,-0.576 0.096,-0.168 0.24,-0.336 0.408,-0.504 0.168,-0.156 0.36,-0.312 0.576,-0.456 0.216,-0.144 0.432,-0.3 0.66,-0.456 0.264,-0.168 0.516,-0.36 0.78,-0.552 0.264,-0.192 0.492,-0.396 0.708,-0.624 0.204,-0.228 0.372,-0.48 0.504,-0.756 0.12,-0.276 0.192,-0.588 0.192,-0.936 0,-0.336 -0.072,-0.66 -0.192,-0.96 -0.132,-0.3 -0.324,-0.564 -0.564,-0.78 -0.252,-0.216 -0.552,-0.396 -0.9,-0.528 -0.348,-0.12 -0.744,-0.192 -1.188,-0.192 -0.72,0 -1.32,0.18 -1.812,0.528 -0.492,0.348 -0.876,0.816 -1.14,1.416 l 1.404,0.708 c 0.144,-0.36 0.348,-0.66 0.588,-0.9 0.24,-0.228 0.564,-0.348 0.948,-0.348 0.384,0 0.684,0.108 0.888,0.312 0.204,0.204 0.312,0.444 0.312,0.732 0,0.168 -0.048,0.336 -0.144,0.48 -0.096,0.144 -0.216,0.288 -0.36,0.432 -0.156,0.144 -0.336,0.276 -0.528,0.42 -0.204,0.144 -0.408,0.288 -0.624,0.432 -0.276,0.192 -0.552,0.384 -0.828,0.588 -0.276,0.216 -0.528,0.444 -0.744,0.696 -0.216,0.252 -0.396,0.528 -0.528,0.828 -0.144,0.312 -0.204,0.648 -0.204,1.02 z m 10.17599,-0.48 v 2.016 h 1.584 v -2.016 h 1.284 v -1.488 h -1.284 v -5.256 h -1.668 l -3.672,5.256 v 1.488 z m 0,-1.488 h -1.992 l 1.992,-2.82 z"
       id="text1"
       transform="matrix(4.8749507,0,0,4.8749507,1165.0022,-1410.3477)"
       aria-label="Galaxy S24" />
  </g>
</svg>
