<svg xmlns:inkscape="http://www.inkscape.org/namespaces/inkscape" xmlns:sodipodi="http://sodipodi.sourceforge.net/DTD/sodipodi-0.dtd" xmlns="http://www.w3.org/2000/svg" xmlns:svg="http://www.w3.org/2000/svg" version="1.1" id="svg5" inkscape:version="1.1 (c68e22c387, 2021-05-23)" sodipodi:docname="Galaxy S22.svg" viewBox="0 0 264.7 49.56">
  <sodipodi:namedview id="namedview7" pagecolor="#505050" bordercolor="#ffffff" borderopacity="1" inkscape:pageshadow="0" inkscape:pageopacity="0" inkscape:pagecheckerboard="1" inkscape:document-units="px" showgrid="false" units="px" fit-margin-top="0" fit-margin-left="0" fit-margin-right="0" fit-margin-bottom="0" inkscape:zoom="0.64504646" inkscape:cx="529.41923" inkscape:cy="141.85025" inkscape:window-width="1366" inkscape:window-height="697" inkscape:window-x="-8" inkscape:window-y="-8" inkscape:window-maximized="1" inkscape:current-layer="layer1"/>
  <defs id="defs2"/>
  <g inkscape:label="Layer 1" inkscape:groupmode="layer" id="layer1" transform="translate(-18.240543,-99.423142)">
    <g aria-label="Galaxy S22" id="text1419" style="font-weight:bold;font-size:49.0734px;line-height:1.25;font-family:'Samsung Sharp Sans';-inkscape-font-specification:'Samsung Sharp Sans Bold';stroke-width:0.340787">
      <path d="m 36.839362,136.22819 c 10.747074,0 17.519203,-8.2934 17.519203,-17.96086 v -2.64997 H 35.759747 v 6.37955 h 11.434102 c -1.324982,4.71104 -4.90734,7.75359 -10.354487,7.75359 -6.968423,0 -11.97391,-5.29992 -11.97391,-11.92483 0,-6.47769 5.05456,-11.92484 11.728543,-11.92484 4.661972,0 8.09711,2.06108 10.354487,6.23232 l 5.888808,-3.53328 c -3.042551,-5.39808 -8.882286,-9.176728 -16.292369,-9.176728 -10.599854,0 -18.304378,8.195258 -18.304378,18.402528 0,9.9619 7.410084,18.40252 18.598819,18.40252 z" id="path3895"/>
      <path d="m 71.043377,136.32634 c 3.778652,0 7.213789,-1.61942 9.323946,-4.31846 v 3.72958 h 6.624908 v -28.70794 h -6.624908 v 3.43514 c -2.110157,-2.50275 -5.447148,-4.02402 -9.225799,-4.02402 -7.262863,0 -14.231286,5.44715 -14.231286,14.96738 0,9.4221 7.21379,14.91832 14.133139,14.91832 z m 1.079615,-6.0851 c -4.90734,0 -8.685992,-3.92588 -8.685992,-8.93136 0,-4.95642 3.778652,-8.83321 8.685992,-8.83321 4.956413,0 8.587844,3.92587 8.587844,8.83321 0,4.95641 -3.631431,8.93136 -8.587844,8.93136 z" id="path3897"/>
      <path d="m 90.770859,135.73746 h 6.673982 V 99.423142 h -6.673982 z" id="path3899"/>
      <path d="m 114.47325,136.32634 c 3.77865,0 7.21379,-1.61942 9.32395,-4.31846 v 3.72958 h 6.62491 v -28.70794 h -6.62491 v 3.43514 c -2.11016,-2.50275 -5.44715,-4.02402 -9.2258,-4.02402 -7.26286,0 -14.23129,5.44715 -14.23129,14.96738 0,9.4221 7.21379,14.91832 14.13314,14.91832 z m 1.07962,-6.0851 c -4.90734,0 -8.686,-3.92588 -8.686,-8.93136 0,-4.95642 3.77866,-8.83321 8.686,-8.83321 4.95641,0 8.58784,3.92587 8.58784,8.83321 0,4.95641 -3.63143,8.93136 -8.58784,8.93136 z" id="path3901"/>
      <path d="m 132.04149,135.73746 h 8.09711 l 6.8212,-9.56932 7.0175,9.56932 h 8.09711 l -10.99244,-14.52573 10.30541,-14.18221 h -7.85174 l -6.47769,9.12765 -6.52676,-9.12765 h -8.09711 l 10.40356,14.08406 z" id="path3903"/>
      <path d="m 167.96315,148.98727 h 6.72305 l 17.12662,-41.95775 h -6.96842 l -7.55731,19.33492 -7.99896,-19.33492 h -7.06657 l 11.77761,27.28481 z" id="path3905"/>
      <path d="m 218.41045,136.22819 c 7.85174,0 12.36649,-5.49622 12.36649,-11.13966 0,-6.87028 -5.49622,-9.02951 -10.35448,-10.59985 -3.92588,-1.32499 -7.31194,-2.15923 -7.31194,-5.05456 0,-2.30645 1.71757,-4.0731 5.00549,-4.0731 2.79718,0 4.95641,1.12869 6.47768,3.43514 l 5.49623,-4.17124 c -2.89534,-2.99347 -6.2814,-5.201778 -12.02299,-5.201778 -6.87027,0 -11.87576,4.514748 -11.87576,10.256338 0,6.82121 5.29993,8.63692 10.15819,10.20727 3.77866,1.17776 7.45916,2.15923 7.45916,5.15271 0,2.50274 -1.91386,4.80919 -5.44715,4.80919 -3.28791,0 -6.03603,-1.71757 -7.85174,-4.85827 l -6.0851,4.8092 c 3.28792,3.6805 7.5573,6.42861 13.98592,6.42861 z" id="path3907"/>
      <path d="m 233.67226,135.73746 h 22.81913 v -6.37954 h -16.14515 c 0,-3.38607 3.68051,-5.64345 7.36101,-8.14619 4.31846,-2.89533 8.93136,-6.0851 8.93136,-11.72854 0,-5.64344 -4.36753,-10.060048 -11.63039,-10.060048 -5.88881,0 -9.86376,3.042548 -12.07206,7.949888 l 5.74159,2.89533 c 1.22683,-2.99347 3.1407,-5.10363 6.28139,-5.10363 3.18977,0 4.90734,1.91386 4.90734,4.26939 0,2.74811 -3.23884,4.71104 -6.77213,7.21379 -4.46568,3.04255 -9.42209,6.6249 -9.42209,12.80815 z" id="path3909"/>
      <path d="m 259.97558,135.73746 h 22.81913 v -6.37954 h -16.14515 c 0,-3.38607 3.6805,-5.64345 7.36101,-8.14619 4.31846,-2.89533 8.93136,-6.0851 8.93136,-11.72854 0,-5.64344 -4.36754,-10.060048 -11.6304,-10.060048 -5.88881,0 -9.86375,3.042548 -12.07206,7.949888 l 5.74159,2.89533 c 1.22684,-2.99347 3.1407,-5.10363 6.2814,-5.10363 3.18977,0 4.90734,1.91386 4.90734,4.26939 0,2.74811 -3.23885,4.71104 -6.77213,7.21379 -4.46568,3.04255 -9.42209,6.6249 -9.42209,12.80815 z" id="path3911"/>
    </g>
  </g>
</svg>