<svg xmlns="http://www.w3.org/2000/svg" id="Layer_1" version="1.1" viewBox="0 0 500 500"><defs><clipPath id="clippath"><path d="M359.9 329.1c-1.6-59.9-39-111.6-91.6-133.9H152.5c-53.9 22.6-91.6 75.9-91.6 137.9s12.9 69.4 34.3 95.2c4.6 5.6 11.6 8.8 18.9 8.8H307c7.3 0 14.2-3.2 19-8.8 21.9-26.9 34.9-61.4 33.9-99.2Z" class="st21"/></clipPath><clipPath id="clippath-1"><path d="M359.9 329.1c0-1.9-.1-3.7-.3-5.6-4.7-72.6-66.6-128.3-139.4-128.3h-19.7C126 195.2 63.4 253.5 60.8 328v5.1c0 36.2 12.9 69.4 34.3 95.2 4.6 5.6 11.6 8.8 18.9 8.8h192.9c7.3 0 14.2-3.2 19-8.8 22.1-26.9 35.1-61.4 34.1-99.2h-.1Z" class="st21"/></clipPath><clipPath id="clippath-2"><path d="M359.9 329.1c0-1.9-.1-3.7-.3-5.6-4.7-72.6-66.6-128.3-139.4-128.3h-19.7C126 195.2 63.4 253.5 60.8 328v5.1c0 36.2 12.9 69.4 34.3 95.2 4.6 5.6 11.6 8.8 18.9 8.8h192.9c7.3 0 14.2-3.2 19-8.8 22.1-26.9 35.1-61.4 34.1-99.2h-.1Z" class="st21"/></clipPath><style>.st1{fill:#64beae}.st4{fill:#6f6f6e}.st5{fill:#d60e32}.st6{fill:#f8c81f}.st7{fill:#c6d761}.st8{fill:#efbac5}.st10{fill:#d3add2}.st11{fill:#6b247b}.st13{fill:#11bae6}.st14{fill:#ffe083}.st18{fill:#def1f8}.st21{fill:none}.st22{fill:#d60f31}.st24{fill:#8ea6d1}.st25{fill:#ce936a}.st26{fill:#8fbb23}.st27{fill:#bb7342}.st30{fill:#921826}.st31{fill:#f5a468}.st33{fill:#e99728}.st34{fill:#c0e4f1}.st35{fill:#0b96b9}.st36{fill:#ef7d2a}.st38{fill:#931827}.st39{fill:#444}.st40{fill:#b69261}.st41{fill:#2c4973}.st42{fill:#885138}.st43{fill:#ae662a}.st48{fill:#eeb9c5}.st49{fill:#fae4a2}.st51{display:none}.st52{fill:#d7ba98}.st56{fill:#f4a09c}.st57{fill:#d1d5ce}.st58{fill:#f2fafd}.st59{fill:#9c7f31}.st60{fill:#9a521c}.st61{fill:#b0cb28}.st63{fill:#7b4832}.st65{fill:#f7b9ba}.st66{fill:#36b397}.st68{fill:#46bfe4}.st70{fill:#d1ad7d}.st73{fill:#df5c11}.st74{fill:#838d92}.st75{fill:#e1c8b1}.st76{fill:#cfe5c6}.st78{fill:#626161}</style></defs><path d="M-5.2-6.5h518v510h-518z" style="fill:#b9b9b9"/><path d="M349.4 182.9c0 2.8-2.2 5-5 5s-5-2.2-5-5v-9.8c0-2.8 2.2-5 5-5s5 2.2 5 5v9.8ZM349.4 213.2c0 2.8-2.2 5-5 5s-5-2.2-5-5v-9.8c0-2.8 2.2-5 5-5s5 2.2 5 5v9.8ZM168.3 203.4c0 2.8-2.2 5-5 5s-5-2.2-5-5v-30.1c0-2.8 2.2-5 5-5s5 2.2 5 5v30.1Z" class="st39"/><path d="M344.4 369c0 11.1-9 20.1-20.1 20.1H183.8c-11.1 0-20.1-9-20.1-20.1V128c0-11.1 9-20.1 20.1-20.1h140.5c11.1 0 20.1 9 20.1 20.1v241.1Z" style="fill:#6d6d6d"/><path d="M334.3 328.9c0 5.5-4.5 10-10 10H183.8c-5.5 0-10-4.5-10-10V148.1c0-5.6 4.5-10.1 10-10.1h140.5c5.5 0 10 4.5 10 10.1v180.8Z" style="fill:#ddd"/><path d="M274 122.9c0 2.8-2.2 5-5 5h-30.1c-2.8 0-5-2.2-5-5s2.2-5 5-5H269c2.8 0 5 2.3 5 5M269 364c0 8.3-6.8 15.1-15.1 15.1s-15.1-6.8-15.1-15.1 6.8-15.1 15.1-15.1S269 355.7 269 364" class="st39"/></svg>