<?xml version="1.0" encoding="UTF-8" standalone="no"?>
<svg
   xmlns:osb="http://www.openswatchbook.org/uri/2009/osb"
   xmlns:dc="http://purl.org/dc/elements/1.1/"
   xmlns:cc="http://creativecommons.org/ns#"
   xmlns:rdf="http://www.w3.org/1999/02/22-rdf-syntax-ns#"
   xmlns:svg="http://www.w3.org/2000/svg"
   xmlns="http://www.w3.org/2000/svg"
   xmlns:xlink="http://www.w3.org/1999/xlink"
   width="729.53772mm"
   height="213.71529mm"
   viewBox="0 0 729.53772 213.7153"
   version="1.1"
   id="svg8">
  <defs
     id="defs2">
    <linearGradient
       id="linearGradient1481"
       osb:paint="solid">
      <stop
         style="stop-color:#1f3053;stop-opacity:1;"
         offset="0"
         id="stop1479" />
    </linearGradient>
    <style
       type="text/css"
       id="style847"><![CDATA[
    .fil2 {fill:#020000}
    .fil0 {fill:#3640BC}
    .fil3 {fill:#E53499}
    .fil1 {fill:#FEFEFE}
    .fil5 {fill:#FE3FAB;fill-opacity:0.768627}
    .fil4 {fill:#FE3FAB;fill-rule:nonzero;fill-opacity:0.768627}
   ]]></style>
    <clipPath
       clipPathUnits="userSpaceOnUse"
       id="clipPath2999">
      <path
         d="M 0,0 H 595.275 V 595.275 H 0 Z"
         id="path3001" />
    </clipPath>
    <clipPath
       clipPathUnits="userSpaceOnUse"
       id="clipPath3029">
      <path
         d="M 39.713,53.579 H 233.188 V 87.774 H 39.713 Z"
         id="path3031" />
    </clipPath>
    <clipPath
       clipPathUnits="userSpaceOnUse"
       id="clipPath3117">
      <path
         d="m 36.637,513.776 h 243.575 v 50.347 H 36.637 Z"
         id="path3119" />
    </clipPath>
    <clipPath
       clipPathUnits="userSpaceOnUse"
       id="clipPath3181">
      <path
         d="M 0,0 H 595.276 V 595.276 H 0 Z"
         id="path3183" />
    </clipPath>
    <clipPath
       clipPathUnits="userSpaceOnUse"
       id="clipPath3211">
      <path
         d="M 0,0 H 595.276 V 595.276 H 0 Z"
         id="path3213" />
    </clipPath>
    <clipPath
       clipPathUnits="userSpaceOnUse"
       id="clipPath3223">
      <path
         d="m 523.644,518.789 h 42.64 v 42.641 h -42.64 z"
         id="path3225" />
    </clipPath>
    <clipPath
       clipPathUnits="userSpaceOnUse"
       id="clipPath3235">
      <path
         d="M 0,0 H 595.276 V 595.276 H 0 Z"
         id="path3237" />
    </clipPath>
    <clipPath
       clipPathUnits="userSpaceOnUse"
       id="clipPath3243">
      <path
         d="M -596.276,287.299 H 1.00002 V 141.693 H -596.276 Z"
         id="path3245" />
    </clipPath>
    <linearGradient
       x1="0"
       y1="0"
       x2="1"
       y2="0"
       gradientUnits="userSpaceOnUse"
       gradientTransform="matrix(615.82184,0,0,-615.82184,-612.05844,142.69284)"
       spreadMethod="pad"
       id="linearGradient3251">
      <stop
         style="stop-opacity:1;stop-color:#0f6cb1"
         offset="0"
         id="stop3253" />
      <stop
         style="stop-opacity:1;stop-color:#00adef"
         offset="0.981429"
         id="stop3255" />
      <stop
         style="stop-opacity:1;stop-color:#00adef"
         offset="0.981429"
         id="stop3257" />
      <stop
         style="stop-opacity:1;stop-color:#00adef"
         offset="1"
         id="stop3259" />
    </linearGradient>
    <clipPath
       clipPathUnits="userSpaceOnUse"
       id="clipPath3749">
      <path
         d="M 522.778,49.488 H 711.52 V 77.834 H 522.778 Z"
         id="path3751" />
    </clipPath>
    <clipPath
       clipPathUnits="userSpaceOnUse"
       id="clipPath3661">
      <path
         d="M 522.778,49.488 H 711.52 V 77.834 H 522.778 Z"
         id="path3663" />
    </clipPath>
    <clipPath
       clipPathUnits="userSpaceOnUse"
       id="clipPath4310">
      <path
         d="M 378.204,231.082 H 58.72 v -32.566 h 319.484 z"
         id="path4312" />
    </clipPath>
    <clipPath
       clipPathUnits="userSpaceOnUse"
       id="clipPath4316">
      <path
         d="M 58.74,231.06 H 378.18 V 198.54 H 58.74 Z"
         clip-rule="evenodd"
         id="path4318" />
    </clipPath>
    <clipPath
       clipPathUnits="userSpaceOnUse"
       id="clipPath4322">
      <path
         d="M 40.5,239.04 H 385.32 V 189.96 H 40.5 Z"
         clip-rule="evenodd"
         id="path4324" />
    </clipPath>
    <clipPath
       clipPathUnits="userSpaceOnUse"
       id="clipPath4328">
      <path
         d="M 19.86,270.06 H 406.02 V 26.76 H 19.86 Z"
         clip-rule="evenodd"
         id="path4330" />
    </clipPath>
    <clipPath
       clipPathUnits="userSpaceOnUse"
       id="clipPath4334">
      <path
         d="M 0,288.03 H 432 V 0.03 H 0 Z"
         id="path4336" />
    </clipPath>
    <clipPath
       clipPathUnits="userSpaceOnUse"
       id="clipPath4328-0">
      <path
         d="M 19.86,270.06 H 406.02 V 26.76 H 19.86 Z"
         clip-rule="evenodd"
         id="path4330-5" />
    </clipPath>
    <clipPath
       clipPathUnits="userSpaceOnUse"
       id="clipPath4334-8">
      <path
         d="M 0,288.03 H 432 V 0.03 H 0 Z"
         id="path4336-1" />
    </clipPath>
    <clipPath
       clipPathUnits="userSpaceOnUse"
       id="clipPath3061">
      <path
         d="M 0,288.03 H 432 V 0.03 H 0 Z"
         id="path3063" />
    </clipPath>
    <clipPath
       clipPathUnits="userSpaceOnUse"
       id="clipPath3015">
      <path
         d="m 55.86,241.56 h 314.1 V 189.84 H 55.86 Z"
         clip-rule="evenodd"
         id="path3017" />
    </clipPath>
    <clipPath
       clipPathUnits="userSpaceOnUse"
       id="clipPath3021">
      <path
         d="M 19.86,270.06 H 406.02 V 26.76 H 19.86 Z"
         clip-rule="evenodd"
         id="path3023" />
    </clipPath>
    <clipPath
       clipPathUnits="userSpaceOnUse"
       id="clipPath3027">
      <path
         d="M 0,288.03 H 432 V 0.03 H 0 Z"
         id="path3029" />
    </clipPath>
    <clipPath
       id="clipPath3027-7"
       clipPathUnits="userSpaceOnUse">
      <path
         id="path3029-5"
         d="M 0,288.03 H 432 V 0.03 H 0 Z" />
    </clipPath>
    <clipPath
       id="clipPath3021-5"
       clipPathUnits="userSpaceOnUse">
      <path
         id="path3023-8"
         clip-rule="evenodd"
         d="M 19.86,270.06 H 406.02 V 26.76 H 19.86 Z" />
    </clipPath>
    <clipPath
       id="clipPath3015-6"
       clipPathUnits="userSpaceOnUse">
      <path
         id="path3017-3"
         clip-rule="evenodd"
         d="m 55.86,241.56 h 314.1 V 189.84 H 55.86 Z" />
    </clipPath>
    <clipPath
       id="clipPath3061-0"
       clipPathUnits="userSpaceOnUse">
      <path
         id="path3063-6"
         d="M 0,288.03 H 432 V 0.03 H 0 Z" />
    </clipPath>
  </defs>
  <metadata
     id="metadata5">
    <rdf:RDF>
      <cc:Work
         rdf:about="">
        <dc:format>image/svg+xml</dc:format>
        <dc:type
           rdf:resource="http://purl.org/dc/dcmitype/StillImage" />
        <dc:title></dc:title>
      </cc:Work>
    </rdf:RDF>
  </metadata>
  <g
     id="layer1"
     transform="translate(-1961.6558,-849.52312)">
    <g
       fill="#034ea2"
       transform="matrix(1.2196753,0,0,1.2196753,1978.207,848.40102)"
       id="g1217"
       style="fill:#000000;fill-opacity:1">
      <path
         id="S"
         d="m 20.78,32.93 c 0.41,1.03 0.28,2.35 0.08,3.15 -0.35,1.42 -1.31,2.87 -4.15,2.87 -2.66,0 -4.28,-1.54 -4.28,-3.86 V 30.96 H 1 v 3.28 c 0,9.5 7.47,12.37 15.48,12.37 7.7,0 14.04,-2.62 15.05,-9.73 C 32.05,33.2 31.67,30.79 31.49,29.9 29.69,20.98 13.53,18.32 12.32,13.33 a 5.46,5.46 0 0 1 -0.04,-2.24 c 0.3,-1.37 1.23,-2.86 3.89,-2.86 2.5,0 3.95,1.54 3.95,3.86 v 2.64 h 10.63 v -3 C 30.75,2.45 22.42,1 16.4,1 8.82,1 2.63,3.51 1.5,10.46 c -0.3,1.9 -0.35,3.6 0.1,5.74 1.85,8.7 16.98,11.22 19.18,16.73"
         style="fill:#000000;fill-opacity:1" />
      <path
         d="M 46.6,2.36 38.7,44.95 H 50.21 L 56.04,6.3 h 0.24 l 5.67,38.65 H 73.4 L 65.55,2.35 Z m 64.35,0 -5.25,32.56 h -0.25 L 100.21,2.36 H 82.84 L 81.9,44.95 H 92.56 L 92.82,6.66 h 0.24 l 7.11,38.29 h 10.81 L 118.1,6.67 h 0.23 l 0.27,38.28 h 10.65 l -0.94,-42.6 z"
         id="path1211"
         style="fill:#000000;fill-opacity:1" />
      <use
         transform="translate(138.47,-0.08)"
         xlink:href="#S"
         id="use1213"
         x="0"
         y="0"
         width="100%"
         height="100%"
         style="fill:#000000;fill-opacity:1" />
      <path
         d="m 195,38.57 c 2.96,0 3.87,-2.04 4.08,-3.08 0.09,-0.46 0.1,-1.08 0.1,-1.63 V 2.36 h 10.78 v 30.53 a 37,37 0 0 1 -0.1,2.8 c -0.75,7.95 -7.03,10.53 -14.86,10.53 -7.84,0 -14.12,-2.58 -14.87,-10.53 -0.03,-0.42 -0.11,-2.02 -0.1,-2.8 V 2.35 h 10.78 v 31.5 c -0.01,0.56 0.01,1.18 0.1,1.64 0.2,1.04 1.12,3.08 4.09,3.08 m 52.08,-36.21 0.58,33.43 h -0.23 l -9.8,-33.43 h -15.8 V 44.5 H 232.3 L 231.72,9.91 h 0.23 l 10.51,34.59 h 15.17 V 2.36 Z m 36.75,35.77 c 3.08,0 4.16,-1.95 4.35,-3.1 0.09,-0.47 0.1,-1.07 0.1,-1.6 v -6.2 h -4.37 v -6.2 H 299 v 11.42 c 0,0.8 -0.02,1.38 -0.15,2.8 -0.7,7.76 -7.43,10.53 -14.98,10.53 -7.55,0 -14.27,-2.77 -14.98,-10.53 -0.12,-1.42 -0.15,-2 -0.15,-2.8 V 14.53 c 0,-0.76 0.1,-2.1 0.18,-2.8 0.95,-7.97 7.4,-10.53 14.95,-10.53 7.55,0 14.17,2.54 14.95,10.52 0.14,1.36 0.1,2.8 0.1,2.8 v 1.43 h -10.74 v -2.39 c 0,0 0,-1 -0.13,-1.62 -0.2,-0.94 -1,-3.1 -4.26,-3.1 -3.1,0 -4.01,2.05 -4.24,3.1 -0.13,0.56 -0.18,1.32 -0.18,2.01 v 19.47 c 0,0.54 0.02,1.14 0.1,1.62 0.2,1.14 1.28,3.09 4.36,3.09"
         id="path1215"
         style="fill:#000000;fill-opacity:1" />
    </g>
    <g
       id="g1491"
       style="fill:#666666;fill-opacity:1">
      <g
         aria-label="Galaxy A10"
         id="text1577"
         style="font-weight:bold;font-size:136.337px;line-height:1.25;font-family:'Samsung Sharp Sans Bold';-inkscape-font-specification:'Samsung Sharp Sans Bold, Bold';letter-spacing:0px;word-spacing:0px;fill:#000000;stroke-width:2.55632">
        <path
           d="m 2013.3275,1027.7907 c 7.4985,0 14.1791,-1.3633 20.1779,-4.0901 5.9988,-2.5904 11.1796,-6.2715 15.4061,-10.7706 4.2264,-4.4991 7.3622,-9.8163 9.6799,-15.95143 2.3177,-5.99882 3.4084,-12.40666 3.4084,-19.08718 v -7.36219 h -51.6717 v 17.72381 h 31.7665 c -1.7724,6.54417 -5.1808,11.72498 -10.0889,15.67879 -5.0445,3.9537 -11.1797,5.8625 -18.6782,5.8625 -4.7718,0 -9.2709,-0.8181 -13.361,-2.5904 -4.0901,-1.7724 -7.6349,-4.0902 -10.498,-7.0896 -2.9994,-2.99939 -5.3171,-6.54415 -6.9532,-10.49792 -1.636,-3.95378 -2.454,-8.31656 -2.454,-12.95202 0,-4.49912 0.818,-8.8619 2.454,-12.81568 1.6361,-3.95377 3.9538,-7.49853 6.9532,-10.49795 2.8631,-2.99941 6.4079,-5.45348 10.3616,-7.22586 3.9538,-1.77238 8.1803,-2.5904 12.8157,-2.5904 6.5442,0 12.2704,1.49971 17.0422,4.36278 4.7717,2.86308 8.5892,7.22586 11.7249,12.95202 l 16.3605,-9.81627 c -2.0451,-3.6811 -4.6355,-7.22586 -7.6349,-10.36161 -3.1357,-3.13575 -6.5442,-5.72615 -10.3616,-8.04388 -3.9538,-2.31773 -8.1802,-4.09011 -12.6794,-5.31714 -4.4991,-1.22704 -9.4072,-1.77239 -14.588,-1.77239 -7.3622,0 -14.1791,1.36337 -20.3142,3.95378 -6.2715,2.72674 -11.5887,6.40784 -16.0878,10.90696 -4.4991,4.63546 -8.0439,10.08894 -10.6343,16.2241 -2.5904,6.2715 -3.8174,12.95202 -3.8174,20.04154 0,6.95319 1.227,13.49736 3.6811,19.63253 2.4541,6.13521 5.9988,11.58861 10.4979,16.22411 4.4992,4.7718 9.9526,8.4529 16.3605,11.1796 6.4078,2.7268 13.361,4.0901 21.1322,4.0901 z"
           style="fill:#000000;stroke-width:2.55632"
           id="path1579" />
        <path
           d="m 2108.354,1028.0634 c 5.3172,0 10.2253,-1.0907 14.7244,-3.2721 4.4991,-2.045 8.3166,-5.0444 11.1796,-8.7255 v 10.3616 h 18.4055 v -79.75718 h -18.4055 v 9.54359 c -2.863,-3.40842 -6.5441,-6.13516 -11.0433,-8.18022 -4.4991,-2.04506 -9.2709,-2.99941 -14.588,-2.99941 -5.0445,0 -9.8163,0.95435 -14.5881,2.72674 -4.7718,1.90871 -8.9982,4.63545 -12.6793,8.18022 -3.6811,3.54476 -6.6805,7.90754 -8.8619,12.95201 -2.3178,5.18081 -3.4084,11.0433 -3.4084,17.72381 0,6.54418 1.0906,12.40667 3.4084,17.45114 2.3177,5.1808 5.3171,9.5436 8.9982,13.0884 3.6811,3.5447 7.9076,6.2715 12.6794,8.0438 4.6354,1.9088 9.4072,2.8631 14.179,2.8631 z m 2.9994,-16.9058 c -3.4084,0 -6.5442,-0.6817 -9.4072,-1.9087 -2.9994,-1.227 -5.5898,-2.9994 -7.7712,-5.3171 -2.1814,-2.1814 -3.8175,-4.77183 -5.0445,-7.90758 -1.227,-2.99942 -1.9087,-6.27151 -1.9087,-9.67993 0,-3.40843 0.6817,-6.68051 1.9087,-9.67993 1.227,-2.99941 2.8631,-5.58982 5.0445,-7.77121 2.1814,-2.18139 4.7718,-3.95377 7.7712,-5.1808 2.863,-1.22704 5.9988,-1.90872 9.4072,-1.90872 3.4085,0 6.6805,0.68168 9.5436,1.90872 2.8631,1.22703 5.4535,2.99941 7.4986,5.1808 2.045,2.31773 3.8174,4.90813 5.0444,7.90755 1.2271,2.99941 1.7724,6.13516 1.7724,9.54359 0,3.40842 -0.5453,6.68051 -1.7724,9.67993 -1.227,2.99941 -2.9994,5.58978 -5.0444,7.90758 -2.0451,2.3177 -4.6355,4.0901 -7.4986,5.3171 -2.8631,1.227 -6.1351,1.9087 -9.5436,1.9087 z"
           style="fill:#000000;stroke-width:2.55632"
           id="path1581" />
        <path
           d="m 2163.1614,925.53798 v 100.88942 h 18.5418 V 925.53798 Z"
           style="fill:#000000;stroke-width:2.55632"
           id="path1583" />
        <path
           d="m 2229.012,1028.0634 c 5.3172,0 10.2253,-1.0907 14.7244,-3.2721 4.4991,-2.045 8.3166,-5.0444 11.1797,-8.7255 v 10.3616 h 18.4055 v -79.75718 h -18.4055 v 9.54359 c -2.8631,-3.40842 -6.5442,-6.13516 -11.0433,-8.18022 -4.4992,-2.04506 -9.271,-2.99941 -14.5881,-2.99941 -5.0445,0 -9.8163,0.95435 -14.5881,2.72674 -4.7717,1.90871 -8.9982,4.63545 -12.6793,8.18022 -3.6811,3.54476 -6.6805,7.90754 -8.8619,12.95201 -2.3177,5.18081 -3.4084,11.0433 -3.4084,17.72381 0,6.54418 1.0907,12.40667 3.4084,17.45114 2.3177,5.1808 5.3171,9.5436 8.9982,13.0884 3.6811,3.5447 7.9076,6.2715 12.6794,8.0438 4.6354,1.9088 9.4072,2.8631 14.179,2.8631 z m 2.9994,-16.9058 c -3.4084,0 -6.5441,-0.6817 -9.4072,-1.9087 -2.9994,-1.227 -5.5898,-2.9994 -7.7712,-5.3171 -2.1814,-2.1814 -3.8175,-4.77183 -5.0445,-7.90758 -1.227,-2.99942 -1.9087,-6.27151 -1.9087,-9.67993 0,-3.40843 0.6817,-6.68051 1.9087,-9.67993 1.227,-2.99941 2.8631,-5.58982 5.0445,-7.77121 2.1814,-2.18139 4.7718,-3.95377 7.7712,-5.1808 2.8631,-1.22704 5.9988,-1.90872 9.4072,-1.90872 3.4085,0 6.6806,0.68168 9.5436,1.90872 2.8631,1.22703 5.4535,2.99941 7.4986,5.1808 2.045,2.31773 3.8174,4.90813 5.0444,7.90755 1.2271,2.99941 1.7724,6.13516 1.7724,9.54359 0,3.40842 -0.5453,6.68051 -1.7724,9.67993 -1.227,2.99941 -2.9994,5.58978 -5.0444,7.90758 -2.0451,2.3177 -4.6355,4.0901 -7.4986,5.3171 -2.863,1.227 -6.1351,1.9087 -9.5436,1.9087 z"
           style="fill:#000000;stroke-width:2.55632"
           id="path1585" />
        <path
           d="m 2307.8147,985.79894 -29.9941,40.62846 h 22.4956 l 18.9508,-26.58575 19.4962,26.58575 h 22.4956 l -30.5395,-40.35579 28.6308,-39.40139 h -21.8139 l -17.9965,25.35868 -18.1328,-25.35868 h -22.4956 z"
           style="fill:#000000;stroke-width:2.55632"
           id="path1587" />
        <path
           d="m 2394.3885,1022.4736 -16.7694,40.7648 h 18.6781 l 47.5816,-116.56818 h -19.3598 l -20.9959,53.71678 -22.2229,-53.71678 h -19.6326 z"
           style="fill:#000000;stroke-width:2.55632"
           id="path1589" />
        <path
           d="m 2516.0007,926.90135 -35.4476,99.52605 h 19.3599 l 6.1351,-17.7238 h 38.5834 l 6.1352,17.7238 h 19.3598 l -35.4476,-99.52605 z m -3.6811,64.0784 13.0884,-37.76535 13.0883,37.76535 z"
           style="fill:#000000;stroke-width:2.55632"
           id="path1591" />
        <path
           d="m 2589.0771,1026.4274 h 18.5418 v -99.52605 h -30.6758 v 17.3148 h 12.134 z"
           style="fill:#000000;stroke-width:2.55632"
           id="path1593" />
        <path
           d="m 2657.2456,1009.3852 c -5.0445,0 -8.7256,-1.3633 -11.316,-4.2264 -2.5904,-2.7267 -3.8174,-6.27151 -3.8174,-10.63429 v -35.17495 c 0,-4.36278 1.3633,-8.04388 3.9537,-11.0433 2.5904,-2.99941 6.4079,-4.49912 11.4523,-4.49912 4.9082,0 8.7256,1.36337 11.316,4.22645 2.5904,2.86308 3.8175,6.54418 3.8175,11.31597 v 35.31129 c 0,4.09011 -1.3634,7.49855 -3.9538,10.36165 -2.5904,2.863 -6.4079,4.3627 -11.4523,4.3627 z m 0.1363,18.4055 c 5.3172,0 10.0889,-0.818 14.3154,-2.3177 4.2264,-1.4997 7.7712,-3.8174 10.6343,-6.6805 2.8631,-2.8631 5.0444,-6.2715 6.5442,-10.2253 1.4997,-3.9538 2.3177,-8.3165 2.3177,-13.22467 v -36.67465 c 0,-4.49912 -0.818,-8.86191 -2.3177,-12.95202 -1.6361,-3.95377 -3.9538,-7.49853 -6.8169,-10.49795 -2.9994,-2.99941 -6.5442,-5.31714 -10.6343,-7.08952 -4.2264,-1.77238 -8.8619,-2.59041 -14.0427,-2.59041 -5.0445,0 -9.5436,0.81803 -13.6337,2.45407 -4.2264,1.77238 -7.7712,4.09011 -10.7706,7.08952 -2.9994,2.99942 -5.3172,6.54418 -6.9532,10.49795 -1.636,4.09011 -2.4541,8.4529 -2.4541,13.22469 v 36.53832 c 0,4.77177 0.8181,9.13457 2.3178,13.08837 1.4997,3.9538 3.6811,7.3622 6.5441,10.2253 2.8631,2.863 6.2715,5.1808 10.498,6.6805 4.2264,1.636 8.9982,2.454 14.4517,2.454 z"
           style="fill:#000000;stroke-width:2.55632"
           id="path1595" />
      </g>
    </g>
  </g>
</svg>
