<?xml version="1.0" encoding="UTF-8" standalone="no"?>
<!-- Created with Inkscape (http://www.inkscape.org/) -->

<svg
   width="1000.631"
   height="130.7531"
   viewBox="0 0 264.75029 34.595091"
   version="1.1"
   id="svg7176"
   inkscape:version="1.1 (c68e22c387, 2021-05-23)"
   sodipodi:docname="Galaxy S22 Ultra.svg"
   xmlns:inkscape="http://www.inkscape.org/namespaces/inkscape"
   xmlns:sodipodi="http://sodipodi.sourceforge.net/DTD/sodipodi-0.dtd"
   xmlns="http://www.w3.org/2000/svg"
   xmlns:svg="http://www.w3.org/2000/svg">
  <sodipodi:namedview
     id="namedview7178"
     pagecolor="#505050"
     bordercolor="#ffffff"
     borderopacity="1"
     inkscape:pageshadow="0"
     inkscape:pageopacity="0"
     inkscape:pagecheckerboard="1"
     inkscape:document-units="px"
     showgrid="false"
     units="px"
     fit-margin-top="0"
     fit-margin-left="0"
     fit-margin-right="0"
     fit-margin-bottom="0"
     inkscape:zoom="0.91223345"
     inkscape:cx="477.39973"
     inkscape:cy="44.396531"
     inkscape:window-width="1366"
     inkscape:window-height="697"
     inkscape:window-x="-8"
     inkscape:window-y="-8"
     inkscape:window-maximized="1"
     inkscape:current-layer="layer1" />
  <defs
     id="defs7173" />
  <g
     inkscape:label="Layer 1"
     inkscape:groupmode="layer"
     id="layer1"
     transform="translate(-31.002263,-121.59764)">
    <g
       aria-label="Galaxy S22 Ultra"
       id="text8458"
       style="font-weight:bold;font-size:44.8191px;line-height:1.25;font-family:'Samsung Sharp Sans';-inkscape-font-specification:'Samsung Sharp Sans Bold';stroke-width:0.311244"
       transform="matrix(0.74434203,0,0,0.74434203,7.9259755,31.087405)">
      <path
         d="m 47.988702,156.42208 c 9.815383,0 16.000418,-7.57442 16.000418,-16.40379 v -2.42023 H 47.002682 v 5.82648 h 10.44285 c -1.210116,4.30264 -4.48191,7.08142 -9.45683,7.08142 -6.364312,0 -10.93586,-4.84046 -10.93586,-10.89104 0,-5.91612 4.616367,-10.89104 10.711764,-10.89104 4.257815,0 7.395152,1.8824 9.45683,5.69203 l 5.378292,-3.22698 c -2.778784,-4.9301 -8.112257,-8.38117 -14.879941,-8.38117 -9.680925,0 -16.717524,7.48479 -16.717524,16.80716 0,9.09828 6.767684,16.80716 16.986439,16.80716 z"
         id="path8936" />
      <path
         d="m 79.227485,156.51172 c 3.451071,0 6.588408,-1.47903 8.515629,-3.94408 v 3.40625 h 6.050578 v -26.21917 h -6.050578 v 3.13734 c -1.927221,-2.28578 -4.97492,-3.67517 -8.425991,-3.67517 -6.633226,0 -12.997538,4.97492 -12.997538,13.66983 0,8.60526 6.588407,13.625 12.9079,13.625 z m 0.98602,-5.55757 c -4.48191,0 -7.93298,-3.58552 -7.93298,-8.15707 0,-4.52673 3.45107,-8.06744 7.93298,-8.06744 4.526729,0 7.843343,3.58553 7.843343,8.06744 0,4.52673 -3.316614,8.15707 -7.843343,8.15707 z"
         id="path8938" />
      <path
         d="m 97.244741,155.97389 h 6.095399 v -33.16613 h -6.095399 z"
         id="path8940" />
      <path
         d="m 118.89231,156.51172 c 3.45107,0 6.58841,-1.47903 8.51563,-3.94408 v 3.40625 h 6.05058 v -26.21917 h -6.05058 v 3.13734 c -1.92722,-2.28578 -4.97492,-3.67517 -8.42599,-3.67517 -6.63323,0 -12.99754,4.97492 -12.99754,13.66983 0,8.60526 6.58841,13.625 12.9079,13.625 z m 0.98602,-5.55757 c -4.48191,0 -7.93298,-3.58552 -7.93298,-8.15707 0,-4.52673 3.45107,-8.06744 7.93298,-8.06744 4.52673,0 7.84334,3.58553 7.84334,8.06744 0,4.52673 -3.31661,8.15707 -7.84334,8.15707 z"
         id="path8942" />
      <path
         d="m 134.93752,155.97389 h 7.39515 l 6.22986,-8.73972 6.40913,8.73972 h 7.39515 l -10.03948,-13.26645 9.41201,-12.95272 h -7.17105 l -5.91613,8.33635 -5.96094,-8.33635 h -7.39515 l 9.50165,12.86308 z"
         id="path8944" />
      <path
         d="m 167.74503,168.07505 h 6.14021 l 15.64187,-38.32033 h -6.36431 l -6.90214,17.65872 -7.30552,-17.65872 h -6.45395 l 10.75659,24.91942 z"
         id="path8946" />
      <path
         d="m 213.81893,156.42208 c 7.17106,0 11.29442,-5.01974 11.29442,-10.17393 0,-6.27468 -5.01974,-8.24672 -9.45683,-9.68093 -3.58553,-1.21011 -6.67805,-1.97204 -6.67805,-4.61637 0,-2.10649 1.56867,-3.71998 4.57155,-3.71998 2.55469,0 4.52673,1.03084 5.91612,3.13734 l 5.01974,-3.80963 c -2.64433,-2.73396 -5.73684,-4.75082 -10.98068,-4.75082 -6.27467,0 -10.84622,4.12336 -10.84622,9.36719 0,6.22986 4.84046,7.88816 9.27755,9.32237 3.45107,1.07566 6.81251,1.97204 6.81251,4.70601 0,2.28577 -1.74795,4.39227 -4.97492,4.39227 -3.00288,0 -5.51275,-1.56867 -7.17106,-4.43709 l -5.55757,4.39227 c 3.00288,3.36143 6.90214,5.8713 12.77344,5.8713 z"
         id="path8948" />
      <path
         d="m 227.75766,155.97389 h 20.84088 v -5.82648 h -14.74548 c 0,-3.09252 3.36143,-5.1542 6.72286,-7.43997 3.94408,-2.64433 8.15708,-5.55757 8.15708,-10.71177 0,-5.15419 -3.9889,-9.18791 -10.62213,-9.18791 -5.37829,0 -9.00864,2.77878 -11.0255,7.26069 l 5.24384,2.64433 c 1.12048,-2.73397 2.86842,-4.66119 5.73684,-4.66119 2.91324,0 4.48191,1.74795 4.48191,3.89926 0,2.50987 -2.95806,4.30264 -6.18503,6.58841 -4.07854,2.77879 -8.60527,6.05058 -8.60527,11.69779 z"
         id="path8950" />
      <path
         d="m 251.78067,155.97389 h 20.84088 v -5.82648 h -14.74548 c 0,-3.09252 3.36143,-5.1542 6.72286,-7.43997 3.94408,-2.64433 8.15708,-5.55757 8.15708,-10.71177 0,-5.15419 -3.9889,-9.18791 -10.62213,-9.18791 -5.37829,0 -9.00864,2.77878 -11.0255,7.26069 l 5.24384,2.64433 c 1.12048,-2.73397 2.86842,-4.66119 5.73684,-4.66119 2.91324,0 4.48191,1.74795 4.48191,3.89926 0,2.50987 -2.95806,4.30264 -6.18503,6.58841 -4.07854,2.77879 -8.60527,6.05058 -8.60527,11.69779 z"
         id="path8952" />
      <path
         d="m 298.79582,156.42208 c 6.76768,0 11.78742,-4.07853 11.78742,-11.7426 v -21.42353 h -6.09539 v 21.78208 c 0,3.22698 -2.55469,5.73685 -5.73685,5.73685 -3.22697,0 -5.6472,-2.50987 -5.6472,-5.73685 v -21.78208 h -6.0954 v 21.42353 c 0,7.66407 4.97492,11.7426 11.78742,11.7426 z"
         id="path8954" />
      <path
         d="m 314.16876,155.97389 h 6.0954 v -33.16613 h -6.0954 z"
         id="path8956" />
      <path
         d="m 322.81881,135.17783 h 4.48191 v 9.8602 c 0,8.33635 2.46505,10.93586 10.5773,10.93586 h 0.85157 v -5.69202 c -4.66119,0 -5.33348,-0.71711 -5.33348,-5.28866 v -9.81538 h 5.33348 v -5.42311 h -5.33348 v -8.15708 l -6.09539,4.16818 v 3.9889 h -4.48191 z"
         id="path8958" />
      <path
         d="m 341.64273,155.97389 h 6.05058 v -13.98356 c 0,-4.52673 1.83758,-6.40913 5.37829,-6.40913 1.74794,0 2.73396,0.44819 3.63035,1.03084 l 2.28577,-5.73684 c -1.21012,-0.67229 -2.68915,-1.12048 -4.61637,-1.12048 -3.27179,0 -5.51275,1.29975 -6.72286,3.89926 v -3.89926 h -6.00576 z"
         id="path8960" />
      <path
         d="m 372.11969,156.51172 c 3.45107,0 6.58841,-1.47903 8.51563,-3.94408 v 3.40625 h 6.05058 v -26.21917 h -6.05058 v 3.13734 c -1.92722,-2.28578 -4.97492,-3.67517 -8.42599,-3.67517 -6.63323,0 -12.99754,4.97492 -12.99754,13.66983 0,8.60526 6.58841,13.625 12.9079,13.625 z m 0.98602,-5.55757 c -4.48191,0 -7.93298,-3.58552 -7.93298,-8.15707 0,-4.52673 3.45107,-8.06744 7.93298,-8.06744 4.52673,0 7.84334,3.58553 7.84334,8.06744 0,4.52673 -3.31661,8.15707 -7.84334,8.15707 z"
         id="path8962" />
    </g>
  </g>
</svg>
